<?xml version="1.0" encoding="UTF-8" standalone="no"?>
<!-- Created with Inkscape (http://www.inkscape.org/) -->
<svg
   xmlns:dc="http://purl.org/dc/elements/1.1/"
   xmlns:cc="http://creativecommons.org/ns#"
   xmlns:rdf="http://www.w3.org/1999/02/22-rdf-syntax-ns#"
   xmlns:svg="http://www.w3.org/2000/svg"
   xmlns="http://www.w3.org/2000/svg"
   xmlns:sodipodi="http://sodipodi.sourceforge.net/DTD/sodipodi-0.dtd"
   xmlns:inkscape="http://www.inkscape.org/namespaces/inkscape"
   width="125.82218"
   height="95.332306"
   id="svg2605"
   sodipodi:version="0.32"
   inkscape:version="0.45+devel"
   version="1.0"
   sodipodi:docname="heavy rain and lightening.svg"
   inkscape:output_extension="org.inkscape.output.svg.inkscape">
  <defs
     id="defs2607" />
  <sodipodi:namedview
     id="base"
     pagecolor="#ffffff"
     bordercolor="#666666"
     borderopacity="1.0"
     gridtolerance="10000"
     guidetolerance="10"
     objecttolerance="10"
     inkscape:pageopacity="0.0"
     inkscape:pageshadow="2"
     inkscape:zoom="4.3553529"
     inkscape:cx="62.911091"
     inkscape:cy="47.666153"
     inkscape:document-units="px"
     inkscape:current-layer="layer1"
     showgrid="false"
     inkscape:window-width="640"
     inkscape:window-height="649"
     inkscape:window-x="20"
     inkscape:window-y="20" />
  <metadata
     id="metadata2610">
    <rdf:RDF>
      <cc:Work
         rdf:about="">
        <dc:format>image/svg+xml</dc:format>
        <dc:type
           rdf:resource="http://purl.org/dc/dcmitype/StillImage" />
      </cc:Work>
    </rdf:RDF>
  </metadata>
  <g
     inkscape:label="Layer 1"
     inkscape:groupmode="layer"
     id="layer1"
     transform="translate(-199.94606,-90.410315)">
    <g
       id="g13563"
       transform="translate(-366.46662,-56.432845)">
      <path
         d="M 679.98743,181.62968 C 678.69188,181.64281 680.50154,181.15164 677.19906,181.22152 C 675.70379,181.25316 673.44421,181.85606 671.5459,182.48785 C 669.59864,183.13595 666.24487,184.41603 664.0006,184.98266 C 659.40302,186.14345 661.93281,185.59288 655.0684,186.67793 C 647.95321,187.80262 646.34952,187.9482 644.76496,187.87611 C 643.24876,187.80713 639.49772,188.27064 635.97203,187.79831 C 632.81221,187.37499 631.60081,187.69187 630.87033,188.19693 C 630.13985,188.70197 629.71156,189.61735 629.75351,190.58395 C 629.79546,191.55053 630.30093,192.41417 631.07165,192.83602 C 631.79018,193.26994 632.8867,193.94374 634.71001,194.55594 C 639.35681,196.11614 646.19439,197.18956 653.7817,197.18956 C 661.36901,197.18956 668.20659,196.11614 672.85338,194.55594 C 674.79376,193.90444 676.01981,193.18154 676.77711,192.70165 C 677.42574,192.29709 677.8667,191.56953 677.96612,190.73987 C 678.1793,188.90671 679.2895,187.39454 680.84352,186.8163 C 682.02266,186.45653 682.75911,185.13303 682.53515,183.77618 C 682.31119,182.41932 681.20796,181.54838 679.98743,181.62968 z"
         id="path11037"
         sodipodi:nodetypes="cszsssssscssssscsc"
         style="fill:#ffffff;fill-opacity:1;fill-rule:nonzero;stroke:none;stroke-width:6.15399885;stroke-linecap:round;stroke-linejoin:round;marker:none;marker-start:none;marker-mid:none;marker-end:none;stroke-miterlimit:0.5;stroke-dashoffset:0;stroke-opacity:1;visibility:visible;display:inline;overflow:visible" />
      <g
         id="g11039"
         transform="matrix(0.916143,0,0,0.916143,324.664,36.8816)">
        <path
           d="M 333.02896,123.38528 C 323.2637,123.38528 314.90094,128.47494 310.79813,135.78577 C 309.15949,134.87095 307.33458,134.31083 305.40564,134.31083 C 299.57246,134.31083 294.71994,139.00297 293.21966,145.37294 C 290.65888,144.36076 287.7034,143.73411 284.52293,143.73411 C 274.9815,143.73411 267.23522,148.96133 267.23522,155.39712 C 267.23522,161.20653 273.58061,165.98547 281.82668,166.86895 C 281.4571,167.49601 281.16583,168.12267 281.16583,168.78091 C 281.16583,174.94284 298.05483,179.95228 318.86044,179.95228 C 339.66605,179.95228 356.55505,174.94284 356.55504,168.78091 C 356.55504,168.36632 356.28104,167.98202 356.13211,167.57911 C 357.0434,167.80573 357.96163,168.04344 358.96053,168.04344 C 364.52636,168.04344 369.0318,164.25914 369.0318,159.60346 C 369.0318,154.94778 364.52635,151.19079 358.96053,151.19079 C 358.27845,151.19079 357.67505,151.41041 357.03086,151.51856 C 357.59415,149.65699 357.98247,147.7482 357.98247,145.72802 C 357.98247,133.40416 346.81101,123.38528 333.02896,123.38528 z"
           id="path11041"
           style="opacity:1;fill:#ffffff;fill-opacity:1;fill-rule:nonzero;stroke:#6798e9;stroke-width:6.71729422;stroke-linecap:round;stroke-linejoin:round;marker:none;marker-start:none;marker-mid:none;marker-end:none;stroke-miterlimit:0.5;stroke-dasharray:none;stroke-dashoffset:0;stroke-opacity:1;visibility:visible;display:inline;overflow:visible" />
        <path
           d="M 364.83566,125.17254 C 355.87911,125.17254 348.20891,130.27287 344.44586,137.59901 C 342.94293,136.68228 341.26914,136.12099 339.49995,136.12099 C 334.14984,136.12099 329.69917,140.82296 328.32313,147.20629 C 325.97443,146.19198 323.26369,145.56401 320.34661,145.56401 C 311.59535,145.56401 304.49058,150.80221 304.49058,157.25146 C 304.49058,163.07306 310.31047,167.86202 317.87366,168.74734 C 317.5347,169.37572 317.26755,170.00369 317.26755,170.66331 C 317.26755,176.83815 332.75788,181.8581 351.8405,181.8581 C 370.9231,181.8581 386.41347,176.83815 386.41347,170.66331 C 386.41347,170.24785 386.16214,169.86273 386.02554,169.459 C 386.86138,169.68608 387.70356,169.9243 388.61973,169.9243 C 393.72465,169.9243 397.85695,166.13206 397.85695,161.46663 C 397.85695,156.8012 393.72462,153.03632 388.61973,153.03632 C 387.99414,153.03632 387.44073,153.25639 386.84987,153.36478 C 387.3665,151.49931 387.72268,149.58652 387.72268,147.5621 C 387.72268,135.21242 377.47636,125.17254 364.83566,125.17254 z"
           id="path11043"
           style="opacity:1;fill:#6798e9;fill-opacity:1;fill-rule:nonzero;stroke:#6798e9;stroke-width:6.71728277;stroke-linecap:round;stroke-linejoin:round;marker:none;marker-start:none;marker-mid:none;marker-end:none;stroke-miterlimit:0.5;stroke-dasharray:none;stroke-dashoffset:0;stroke-opacity:1;visibility:visible;display:inline;overflow:visible" />
        <path
           d="M 328.55148,163.26629 C 323.56345,163.26629 319.29181,165.80716 317.19611,169.45689 C 316.35911,169.00019 315.42696,168.72057 314.44167,168.72057 C 311.46212,168.72057 308.98349,171.063 308.21714,174.24303 C 306.90912,173.73773 305.39948,173.42488 303.77491,173.42488 C 298.90122,173.42488 294.94447,176.03444 294.94447,179.24733 C 294.94447,182.14753 298.18565,184.53328 302.3977,184.97433 C 302.20892,185.28738 302.06014,185.60022 302.06014,185.92883 C 302.06014,189.00501 310.68692,191.50584 321.3143,191.50584 C 331.94166,191.50584 340.56846,189.00501 340.56846,185.92883 C 340.56846,185.72186 340.42849,185.53 340.35242,185.32886 C 340.81791,185.44201 341.28693,185.56067 341.79716,185.56067 C 344.64015,185.56067 346.94149,183.67145 346.94149,181.34724 C 346.94149,179.02302 344.64014,177.14744 341.79716,177.14744 C 341.44875,177.14744 341.14055,177.25707 340.8115,177.31106 C 341.09922,176.38172 341.29758,175.42881 341.29758,174.4203 C 341.29758,168.26793 335.59126,163.26629 328.55148,163.26629 z"
           id="path11045"
           style="opacity:1;fill:#386195;fill-opacity:1;fill-rule:nonzero;stroke:#386195;stroke-width:6.71728849;stroke-linecap:round;stroke-linejoin:round;marker:none;marker-start:none;marker-mid:none;marker-end:none;stroke-miterlimit:0.5;stroke-dasharray:none;stroke-dashoffset:0;stroke-opacity:1;visibility:visible;display:inline;overflow:visible" />
      </g>
      <path
         d="M 633.67414,165.36179 L 613.63173,178.07046 L 633.42635,182.43648 L 615.13034,196.08032 L 607.7435,193.77635 L 612.98273,206.92752 L 633.80394,201.18975 L 625.01289,198.79138 L 648.88443,179.19442 L 627.06316,175.6426 L 648.13513,162.39997 L 636.11528,160.41166 L 649.20671,151.99527 L 644.39745,151.87432 L 624.08217,163.42068 L 633.67414,165.36179 z"
         id="path11047"
         sodipodi:nodetypes="cccccccccccccccc"
         style="opacity:1;fill:#f5ff12;fill-opacity:1;fill-rule:nonzero;stroke:#f5ff12;stroke-width:0.5;stroke-linecap:round;stroke-linejoin:miter;marker:none;marker-start:none;marker-mid:none;marker-end:none;stroke-miterlimit:0.5;stroke-dasharray:none;stroke-dashoffset:0;stroke-opacity:1;visibility:visible;display:inline;overflow:visible" />
      <g
         id="g11065">
        <path
           d="M 595.99705,230.2882 C 587.74658,237.55819 597.43389,243.75762 601.11738,233.77438 L 603.94991,224.51421 L 595.99705,230.2882 z"
           id="path11049"
           sodipodi:nodetypes="cccc"
           style="opacity:1;fill:#6798e9;fill-opacity:1;fill-rule:nonzero;stroke:#6798e9;stroke-width:4;stroke-linecap:butt;stroke-linejoin:miter;marker:none;marker-start:none;marker-mid:none;marker-end:none;stroke-miterlimit:3.20000005;stroke-dasharray:none;stroke-dashoffset:0;stroke-opacity:1;visibility:visible;display:inline;overflow:visible" />
        <path
           d="M 625.0456,231.48822 C 616.79513,238.75821 626.48244,244.95764 630.16593,234.9744 L 632.99846,225.71423 L 625.0456,231.48822 z"
           id="path11051"
           sodipodi:nodetypes="cccc"
           style="opacity:1;fill:#6798e9;fill-opacity:1;fill-rule:nonzero;stroke:#6798e9;stroke-width:4;stroke-linecap:butt;stroke-linejoin:miter;marker:none;marker-start:none;marker-mid:none;marker-end:none;stroke-miterlimit:3.20000005;stroke-dasharray:none;stroke-dashoffset:0;stroke-opacity:1;visibility:visible;display:inline;overflow:visible" />
        <path
           d="M 618.28196,216.14478 C 610.03149,223.41477 619.7188,229.6142 623.40229,219.63096 L 626.23482,210.37079 L 618.28196,216.14478 z"
           id="path11053"
           sodipodi:nodetypes="cccc"
           style="opacity:1;fill:#6798e9;fill-opacity:1;fill-rule:nonzero;stroke:#6798e9;stroke-width:4;stroke-linecap:butt;stroke-linejoin:miter;marker:none;marker-start:none;marker-mid:none;marker-end:none;stroke-miterlimit:3.20000005;stroke-dasharray:none;stroke-dashoffset:0;stroke-opacity:1;visibility:visible;display:inline;overflow:visible" />
        <path
           d="M 595.99705,230.2882 C 587.74658,237.55819 597.43389,243.75762 601.11738,233.77438 L 603.94991,224.51421 L 595.99705,230.2882 z"
           id="path11055"
           sodipodi:nodetypes="cccc"
           style="opacity:1;fill:#6798e9;fill-opacity:1;fill-rule:nonzero;stroke:#6798e9;stroke-width:4;stroke-linecap:butt;stroke-linejoin:miter;marker:none;marker-start:none;marker-mid:none;marker-end:none;stroke-miterlimit:3.20000005;stroke-dasharray:none;stroke-dashoffset:0;stroke-opacity:1;visibility:visible;display:inline;overflow:visible" />
        <path
           d="M 625.0456,231.48822 C 616.79513,238.75821 626.48244,244.95764 630.16593,234.9744 L 632.99846,225.71423 L 625.0456,231.48822 z"
           id="path11057"
           sodipodi:nodetypes="cccc"
           style="opacity:1;fill:#6798e9;fill-opacity:1;fill-rule:nonzero;stroke:#6798e9;stroke-width:4;stroke-linecap:butt;stroke-linejoin:miter;marker:none;marker-start:none;marker-mid:none;marker-end:none;stroke-miterlimit:3.20000005;stroke-dasharray:none;stroke-dashoffset:0;stroke-opacity:1;visibility:visible;display:inline;overflow:visible" />
        <path
           d="M 618.28196,216.14478 C 610.03149,223.41477 619.7188,229.6142 623.40229,219.63096 L 626.23482,210.37079 L 618.28196,216.14478 z"
           id="path11059"
           sodipodi:nodetypes="cccc"
           style="opacity:1;fill:#6798e9;fill-opacity:1;fill-rule:nonzero;stroke:#6798e9;stroke-width:4;stroke-linecap:butt;stroke-linejoin:miter;marker:none;marker-start:none;marker-mid:none;marker-end:none;stroke-miterlimit:3.20000005;stroke-dasharray:none;stroke-dashoffset:0;stroke-opacity:1;visibility:visible;display:inline;overflow:visible" />
      </g>
    </g>
  </g>
</svg>
